<mxfile host="app.diagrams.net" modified="2024-05-06T13:49:44.200Z" agent="Mozilla/5.0 (Windows NT 10.0; Win64; x64) AppleWebKit/537.36 (KHTML, like Gecko) Chrome/124.0.0.0 Safari/537.36" etag="7mR4lZ6a8gnlEb2B-lZ1" version="24.3.1" type="device">
  <diagram name="Page-1" id="e7e014a7-5840-1c2e-5031-d8a46d1fe8dd">
    <mxGraphModel dx="1050" dy="565" grid="1" gridSize="10" guides="1" tooltips="1" connect="1" arrows="1" fold="1" page="1" pageScale="1" pageWidth="1169" pageHeight="826" background="none" math="0" shadow="0">
      <root>
        <mxCell id="0" />
        <mxCell id="1" parent="0" />
        <mxCell id="2" value="MAHASISWA" style="swimlane;whiteSpace=wrap" parent="1" vertex="1">
          <mxGeometry x="164.5" y="128" width="280" height="682" as="geometry" />
        </mxCell>
        <mxCell id="3" value="SISTEM" style="swimlane;whiteSpace=wrap" parent="1" vertex="1">
          <mxGeometry x="444.5" y="128" width="280" height="681" as="geometry" />
        </mxCell>
        <mxCell id="Lf3dww0xjz-Nq8MFS-Qh-41" value="" style="ellipse;shape=startState;fillColor=#000000;strokeColor=#ff0000;" vertex="1" parent="3">
          <mxGeometry x="-154.5" y="52" width="30" height="30" as="geometry" />
        </mxCell>
        <mxCell id="Lf3dww0xjz-Nq8MFS-Qh-42" value="" style="edgeStyle=elbowEdgeStyle;elbow=horizontal;verticalAlign=bottom;endArrow=open;endSize=8;strokeColor=#FF0000;endFill=1;rounded=0" edge="1" parent="3">
          <mxGeometry x="-509" y="-216" as="geometry">
            <mxPoint x="-140" y="122" as="targetPoint" />
            <mxPoint x="-139.5" y="81.92481155659925" as="sourcePoint" />
          </mxGeometry>
        </mxCell>
        <mxCell id="Lf3dww0xjz-Nq8MFS-Qh-43" value="Memilih menu Krs" style="" vertex="1" parent="3">
          <mxGeometry x="-194.5" y="122" width="110" height="50" as="geometry" />
        </mxCell>
        <mxCell id="Lf3dww0xjz-Nq8MFS-Qh-44" value="" style="endArrow=open;strokeColor=#FF0000;endFill=1;rounded=0" edge="1" parent="3">
          <mxGeometry relative="1" as="geometry">
            <mxPoint x="-83.5" y="148" as="sourcePoint" />
            <mxPoint x="66.5" y="148" as="targetPoint" />
          </mxGeometry>
        </mxCell>
        <mxCell id="Lf3dww0xjz-Nq8MFS-Qh-45" value="Memilih Jadwal" style="" vertex="1" parent="3">
          <mxGeometry x="-194.5" y="242" width="110" height="50" as="geometry" />
        </mxCell>
        <mxCell id="Lf3dww0xjz-Nq8MFS-Qh-46" value="" style="endArrow=open;strokeColor=#FF0000;endFill=1;rounded=0;exitX=0.592;exitY=1.02;exitDx=0;exitDy=0;exitPerimeter=0;entryX=1;entryY=0.5;entryDx=0;entryDy=0;startSize=0;" edge="1" parent="3" source="Lf3dww0xjz-Nq8MFS-Qh-52" target="Lf3dww0xjz-Nq8MFS-Qh-45">
          <mxGeometry relative="1" as="geometry">
            <mxPoint x="145.5" y="192" as="sourcePoint" />
            <mxPoint x="-14.5" y="269" as="targetPoint" />
            <Array as="points">
              <mxPoint x="145.5" y="269" />
            </Array>
          </mxGeometry>
        </mxCell>
        <mxCell id="Lf3dww0xjz-Nq8MFS-Qh-47" value="klik Simpan" style="" vertex="1" parent="3">
          <mxGeometry x="-194.5" y="332" width="110" height="50" as="geometry" />
        </mxCell>
        <mxCell id="Lf3dww0xjz-Nq8MFS-Qh-48" value="" style="edgeStyle=elbowEdgeStyle;elbow=horizontal;align=left;verticalAlign=top;endArrow=open;endSize=8;strokeColor=#FF0000;endFill=1;rounded=0" edge="1" parent="3">
          <mxGeometry x="-1" relative="1" as="geometry">
            <mxPoint x="-140" y="332" as="targetPoint" />
            <mxPoint x="-140" y="292" as="sourcePoint" />
          </mxGeometry>
        </mxCell>
        <mxCell id="Lf3dww0xjz-Nq8MFS-Qh-49" value="" style="endArrow=open;strokeColor=#FF0000;endFill=1;rounded=0" edge="1" parent="3">
          <mxGeometry relative="1" as="geometry">
            <mxPoint x="-84" y="356.5" as="sourcePoint" />
            <mxPoint x="91.5" y="357" as="targetPoint" />
          </mxGeometry>
        </mxCell>
        <mxCell id="Lf3dww0xjz-Nq8MFS-Qh-50" value="Memilih Ulang &#xa;Jadwal" style="" vertex="1" parent="3">
          <mxGeometry x="-194.5" y="452" width="110" height="50" as="geometry" />
        </mxCell>
        <mxCell id="Lf3dww0xjz-Nq8MFS-Qh-51" value="" style="edgeStyle=elbowEdgeStyle;elbow=horizontal;align=left;verticalAlign=top;endArrow=open;endSize=8;strokeColor=#FF0000;endFill=1;rounded=0" edge="1" parent="3">
          <mxGeometry x="-1" relative="1" as="geometry">
            <mxPoint x="-135.5" y="392" as="targetPoint" />
            <mxPoint x="-135.5" y="452" as="sourcePoint" />
            <Array as="points">
              <mxPoint x="-135" y="422" />
            </Array>
          </mxGeometry>
        </mxCell>
        <mxCell id="Lf3dww0xjz-Nq8MFS-Qh-52" value="Menampilkan &#xa;halaman Krs" style="" vertex="1" parent="3">
          <mxGeometry x="80" y="122" width="110" height="50" as="geometry" />
        </mxCell>
        <mxCell id="Lf3dww0xjz-Nq8MFS-Qh-53" value="Menampilkan Hasil&#xa;Pilihan Jadwal" style="" vertex="1" parent="3">
          <mxGeometry x="100" y="322" width="110" height="50" as="geometry" />
        </mxCell>
        <mxCell id="Lf3dww0xjz-Nq8MFS-Qh-54" value="Validasi" style="rhombus;fillColor=#ffffc0;strokeColor=#ff0000;" vertex="1" parent="3">
          <mxGeometry x="120" y="452" width="70" height="40" as="geometry" />
        </mxCell>
        <mxCell id="Lf3dww0xjz-Nq8MFS-Qh-55" value="" style="endArrow=open;strokeColor=#FF0000;endFill=1;rounded=0;exitX=0;exitY=0.5;exitDx=0;exitDy=0;" edge="1" parent="3" source="Lf3dww0xjz-Nq8MFS-Qh-54">
          <mxGeometry relative="1" as="geometry">
            <mxPoint x="135.5" y="509" as="sourcePoint" />
            <mxPoint x="-74.5" y="472" as="targetPoint" />
          </mxGeometry>
        </mxCell>
        <mxCell id="Lf3dww0xjz-Nq8MFS-Qh-56" value="Simpan Permanen&#xa;" style="" vertex="1" parent="3">
          <mxGeometry x="120" y="572" width="105.5" height="38" as="geometry" />
        </mxCell>
        <mxCell id="Lf3dww0xjz-Nq8MFS-Qh-57" value="Yes" style="edgeStyle=elbowEdgeStyle;elbow=horizontal;align=left;verticalAlign=top;endArrow=open;endSize=8;strokeColor=#FF0000;endFill=1;rounded=0" edge="1" parent="3" source="Lf3dww0xjz-Nq8MFS-Qh-54">
          <mxGeometry x="-1" relative="1" as="geometry">
            <mxPoint x="155.5" y="562" as="targetPoint" />
          </mxGeometry>
        </mxCell>
        <mxCell id="Lf3dww0xjz-Nq8MFS-Qh-58" value="" style="edgeStyle=elbowEdgeStyle;elbow=horizontal;align=left;verticalAlign=bottom;endArrow=open;endSize=8;strokeColor=#FF0000;endFill=1;rounded=0;exitX=0.68;exitY=1;exitDx=0;exitDy=0;exitPerimeter=0;" edge="1" parent="3" source="Lf3dww0xjz-Nq8MFS-Qh-53">
          <mxGeometry x="-0.8819" y="-15" relative="1" as="geometry">
            <mxPoint x="154.75" y="452" as="targetPoint" />
            <Array as="points">
              <mxPoint x="155.25" y="382" />
            </Array>
            <mxPoint x="155.5" y="392" as="sourcePoint" />
            <mxPoint x="1" as="offset" />
          </mxGeometry>
        </mxCell>
        <mxCell id="Lf3dww0xjz-Nq8MFS-Qh-59" value="No" style="text;html=1;align=center;verticalAlign=middle;resizable=0;points=[];autosize=1;strokeColor=none;fillColor=none;" vertex="1" parent="3">
          <mxGeometry x="100" y="442" width="40" height="30" as="geometry" />
        </mxCell>
        <mxCell id="Lf3dww0xjz-Nq8MFS-Qh-60" value="" style="ellipse;shape=startState;fillColor=#000000;strokeColor=#ff0000;" vertex="1" parent="3">
          <mxGeometry x="155.5" y="641" width="30" height="30" as="geometry" />
        </mxCell>
        <mxCell id="Lf3dww0xjz-Nq8MFS-Qh-61" value="" style="edgeStyle=elbowEdgeStyle;elbow=horizontal;verticalAlign=bottom;endArrow=open;endSize=8;strokeColor=#FF0000;endFill=1;rounded=0" edge="1" parent="3">
          <mxGeometry x="-1678" y="-472" as="geometry">
            <mxPoint x="169.5" y="640" as="targetPoint" />
            <mxPoint x="170" y="610" as="sourcePoint" />
            <Array as="points" />
          </mxGeometry>
        </mxCell>
        <mxCell id="Lf3dww0xjz-Nq8MFS-Qh-62" value="&lt;b&gt;&lt;font style=&quot;font-size: 30px;&quot;&gt;MENYUSUN KRS&lt;/font&gt;&lt;/b&gt;" style="text;html=1;align=center;verticalAlign=middle;resizable=0;points=[];autosize=1;strokeColor=none;fillColor=none;" vertex="1" parent="1">
          <mxGeometry x="315" y="38" width="270" height="50" as="geometry" />
        </mxCell>
      </root>
    </mxGraphModel>
  </diagram>
</mxfile>
